<?xml version="1.0" encoding="utf-8"?>
<!-- Generator: Adobe Illustrator 19.1.0, SVG Export Plug-In . SVG Version: 6.00 Build 0)  -->
<svg version="1.1" id="Layer_1" xmlns="http://www.w3.org/2000/svg" xmlns:xlink="http://www.w3.org/1999/xlink" x="0px" y="0px"
	 viewBox="0 0 18 18" style="enable-background:new 0 0 18 18;" xml:space="preserve">
<style type="text/css">
	.st0{clip-path:url(#SVGID_2_);fill:#3E82F1;}
	.st1{clip-path:url(#SVGID_4_);fill:#32A753;}
	.st2{clip-path:url(#SVGID_6_);fill:#F9BB00;}
	.st3{clip-path:url(#SVGID_8_);fill:#E74133;}
</style>
<g>
	<defs>
		<path id="SVGID_1_" d="M17.8,9.2c0-0.6-0.1-1.3-0.2-1.8H9.2v3.5H14c-0.2,1.1-0.8,2.1-1.8,2.7v2.3h2.9
			C16.8,14.3,17.8,11.9,17.8,9.2L17.8,9.2L17.8,9.2z M17.8,9.2"/>
	</defs>
	<clipPath id="SVGID_2_">
		<use xlink:href="#SVGID_1_"  style="overflow:visible;"/>
	</clipPath>
	<rect x="4.2" y="2.4" class="st0" width="18.6" height="18.5"/>
</g>
<g>
	<defs>
		<path id="SVGID_3_" d="M9.2,18c2.4,0,4.5-0.8,6-2.2l-2.9-2.3c-0.8,0.5-1.8,0.9-3,0.9c-2.3,0-4.3-1.6-5-3.7h-3V13
			C2.6,16,5.7,18,9.2,18L9.2,18L9.2,18z M9.2,18"/>
	</defs>
	<clipPath id="SVGID_4_">
		<use xlink:href="#SVGID_3_"  style="overflow:visible;"/>
	</clipPath>
	<rect x="-3.9" y="5.7" class="st1" width="24" height="17.3"/>
</g>
<g>
	<defs>
		<path id="SVGID_5_" d="M4.1,10.7C4,10.2,3.9,9.6,3.9,9c0-0.6,0.1-1.2,0.3-1.7V5h-3c-0.6,1.2-1,2.6-1,4s0.3,2.8,1,4L4.1,10.7
			L4.1,10.7L4.1,10.7z M4.1,10.7"/>
	</defs>
	<clipPath id="SVGID_6_">
		<use xlink:href="#SVGID_5_"  style="overflow:visible;"/>
	</clipPath>
	<rect x="-4.8" y="0" class="st2" width="14" height="18.1"/>
</g>
<g>
	<defs>
		<path id="SVGID_7_" d="M9.2,3.6c1.3,0,2.5,0.5,3.4,1.3l2.6-2.6C13.6,0.9,11.6,0,9.2,0c-3.5,0-6.6,2-8,5l3,2.3
			C4.9,5.2,6.8,3.6,9.2,3.6L9.2,3.6L9.2,3.6z M9.2,3.6"/>
	</defs>
	<clipPath id="SVGID_8_">
		<use xlink:href="#SVGID_7_"  style="overflow:visible;"/>
	</clipPath>
	<rect x="-3.9" y="-5" class="st3" width="24.1" height="17.3"/>
</g>
</svg>
